HIERARCHY
ROOT Hips
{
	OFFSET 0.000000 0.000000 0.000000 
	CHANNELS 6 Xposition Yposition Zposition Yrotation Zrotation Xrotation 
	JOINT Lumbar
	{
		OFFSET 0.000000 0.000000 0.000000 
		CHANNELS 3 Zrotation Xrotation Yrotation
		JOINT Neck
		{
			OFFSET 0.000000 0.445665 0.000000 
			CHANNELS 3 Zrotation Xrotation Yrotation
			End Site
			{
				OFFSET 0.000000 0.227535 0.000000 
			}
		}
		JOINT RightShoulder
		{
			OFFSET 0.019635 0.377685 0.194865 
			CHANNELS 3 Zrotation Xrotation Yrotation
			JOINT RightElbow
			{
				OFFSET 0.000000 -0.243375 0.000000 
				CHANNELS 2 Zrotation Yrotation
				JOINT RightWrist
				{
					OFFSET 0.000000 -0.264825 0.000000 
					CHANNELS 2 Zrotation Xrotation
					End Site
					{
						OFFSET 0.006600 -0.176220 0.000990 
					}
				}
			}
		}
		JOINT LeftShoulder
		{
			OFFSET 0.019635 0.377685 -0.194865 
			CHANNELS 3 Zrotation Xrotation Yrotation
			JOINT LeftElbow
			{
				OFFSET 0.000000 -0.243375 0.000000 
				CHANNELS 2 Zrotation Yrotation
				JOINT LeftWrist
				{
					OFFSET 0.000000 -0.264825 0.000000 
					CHANNELS 2 Zrotation Xrotation
					End Site
					{
						OFFSET 0.006600 -0.176220 -0.000990 
					}
				}
			}
		}
	}
	JOINT RightHip
	{
		OFFSET 0.052140 -0.069960 0.075570 
		CHANNELS 3 Zrotation Xrotation Yrotation
		JOINT RightKnee
		{
			OFFSET 0.000000 -0.402270 0.000000 
			CHANNELS 1 Zrotation
			JOINT RightAnkle
			{
				OFFSET 0.000000 -0.404085 0.000000 
				CHANNELS 3 Zrotation Xrotation Yrotation
				End Site
				{
					OFFSET 0.204105 -0.089430 0.008415 
				}
			}
		}
	}
	JOINT LeftHip
	{
		OFFSET 0.052140 -0.069960 -0.075570 
		CHANNELS 3 Zrotation Xrotation Yrotation
		JOINT LeftKnee
		{
			OFFSET 0.000000 -0.402270 0.000000 
			CHANNELS 1 Zrotation
			JOINT LeftAnkle
			{
				OFFSET 0.000000 -0.404085 0.000000 
				CHANNELS 3 Zrotation Xrotation Yrotation
				End Site
				{
					OFFSET 0.204105 -0.089430 -0.008415 
				}
			}
		}
	}
}
MOTION
Frames: 22
Frame Time: 0.02
-0.00085 -0.00025 -2e-05 172.56628 -45.89456 0.57591 58.46759 0.51615 3.58226 -7.66838 -0.65708 -0.14353 118.79195 -83.04073 -90.01152 9.05634 84.84175 -0.06378 -11.79328 166.19632 80.62807 83.13651 5.33161 -68.92317 3.42453 11.50468 50.81737 0.22488 -9.35543 -19.27533 -7.98461 -5.23962 -3.49912 54.0849 0.87491 9.1093 -24.28127 -8.36687 5.13353 3.44159
-0.00059 -0.00029 0.00044 172.64989 -45.85056 0.5552 58.45018 0.50153 3.53062 -7.68774 -0.64598 -0.14274 116.49133 -83.03875 -90.01148 9.07309 84.90012 -1.16305 -11.7154 164.5697 80.64744 83.82186 5.33158 -68.53766 3.21241 11.56214 50.79852 0.21034 -9.41735 -19.29989 -7.9864 -5.24116 -3.50066 54.0658 0.87576 9.15209 -24.28578 -8.35391 5.12185 3.43618
-0.00034 -0.00032 0.00089 172.73319 -45.80669 0.53451 58.43276 0.48697 3.4791 -7.707 -0.6349 -0.14195 114.19692 -83.03671 -90.01143 9.0896 84.95833 -2.25894 -11.63755 162.94681 80.6668 84.50511 5.33155 -68.15306 3.00088 11.61941 50.77976 0.19582 -9.4791 -19.32443 -7.98818 -5.24269 -3.50219 54.04677 0.87657 9.19463 -24.29027 -8.341 5.11022 3.43079
-9e-05 -0.00036 0.00134 172.81654 -45.76282 0.51386 58.41539 0.4724 3.42761 -7.7263 -0.62383 -0.14116 111.90344 -83.03472 -90.01141 9.1063 85.01653 -3.35482 -11.5599 161.32509 80.68611 85.18836 5.33152 -67.7685 2.78944 11.67672 50.76096 0.18132 -9.54084 -19.34893 -7.98995 -5.24422 -3.50372 54.02772 0.87741 9.23727 -24.29476 -8.32808 5.09858 3.4254
0.00017 -0.00039 0.0018 172.90022 -45.71883 0.49319 58.39806 0.45778 3.37601 -7.74571 -0.61276 -0.14038 109.60357 -83.03283 -90.01133 9.12325 85.07484 -4.45407 -11.48225 159.69982 80.70542 85.87371 5.33149 -67.38365 2.57733 11.73413 50.74206 0.16681 -9.60273 -19.37344 -7.99173 -5.24576 -3.50526 54.00862 0.87832 9.2802 -24.29928 -8.31512 5.0869 3.41997
0.00042 -0.00042 0.00225 172.98269 -45.67521 0.47248 58.38044 0.44333 3.32466 -7.76465 -0.60164 -0.13958 107.32046 -83.03047 -90.0113 9.13879 85.13283 -5.54282 -11.40395 158.08189 80.7249 86.55249 5.33146 -66.99989 2.36699 11.79104 50.72361 0.15225 -9.66419 -19.39804 -7.99352 -5.24727 -3.50678 53.98974 0.87889 9.32193 -24.30369 -8.30232 5.07538 3.41466
0.00067 -0.00046 0.00271 173.06753 -45.63088 0.45187 58.36342 0.42856 3.27287 -7.78451 -0.59064 -0.13881 105.00763 -83.02904 -90.01138 9.15731 85.19147 -6.65145 -11.32718 156.45182 80.74398 87.24371 5.33143 -66.613 2.15359 11.84917 50.70425 0.13781 -9.72647 -19.42243 -7.99528 -5.24883 -3.50833 53.97041 0.88014 9.366 -24.30831 -8.2892 5.06355 3.40913
0.00093 -0.00049 0.00316 173.15013 -45.58723 0.43116 58.34585 0.41406 3.22146 -7.80354 -0.57952 -0.13801 102.71949 -83.0268 -90.01099 9.17282 85.24938 -7.74186 -11.24876 154.8314 80.76351 87.92353 5.3314 -66.23151 1.9425 11.90567 50.68577 0.12328 -9.78794 -19.44701 -7.99707 -5.25035 -3.50985 53.95153 0.88079 9.40798 -24.31275 -8.27638 5.052 3.4038
0.00118 -0.00052 0.00361 173.23022 -45.54432 0.41033 58.32756 0.39998 3.17061 -7.82149 -0.56826 -0.13717 100.4712 -83.02336 -90.01145 9.18567 85.30694 -8.81 -11.16918 153.22797 80.7833 88.5894 5.33137 -65.84642 1.73621 11.96219 50.66821 0.10854 -9.84868 -19.47184 -7.99889 -5.25181 -3.51135 53.93307 0.88058 9.44712 -24.31693 -8.26392 5.04079 3.39872
0.00143 -0.00057 0.00407 173.32544 -45.49687 0.39023 58.31329 0.38375 3.11681 -7.84543 -0.55785 -0.13654 98.02261 -83.0262 -90.0113 9.21687 85.36814 -10.00631 -11.09887 151.54232 80.80069 89.33554 5.33131 -65.45133 1.50823 12.02465 50.64488 0.09473 -9.9144 -19.4953 -8.00053 -5.25361 -3.51302 53.91178 0.88494 9.50175 -24.32247 -8.24935 5.02761 3.39221
0.0017 -0.00059 0.00451 173.38833 -45.45917 0.36857 58.29061 0.3719 3.06909 -7.85689 -0.5456 -0.1355 95.97837 -83.01617 -90.00969 9.20743 85.42061 -10.93211 -11.00737 150.0205 80.8237 89.91228 5.33133 -65.09705 1.32221 12.07069 50.63403 0.0791 -9.9691 -19.52161 -8.00253 -5.25466 -3.5143 53.89675 0.87992 9.52424 -24.32523 -8.23927 5.0186 3.38872
0.00204 -0.00051 0.00488 173.36493 -45.44703 0.34289 58.24395 0.37339 3.03902 -7.83273 -0.52865 -0.13318 95.19388 -82.96529 -90.0144 9.10198 85.45603 -11.11027 -10.87066 149.00989 80.85714 90.0201 5.3316 -64.6864 1.28452 12.10415 50.65529 0.05714 -9.99778 -19.55627 -8.00564 -5.25395 -3.51474 53.89664 0.84663 9.45319 -24.31968 -8.24139 5.02109 3.39374
0.00242 -0.00041 0.00522 173.30858 -45.44486 0.31561 58.18888 0.37896 3.01468 -7.7964 -0.5098 -0.13052 94.78098 -82.90106 -90.0072 8.95355 85.48024 -11.01844 -10.71045 148.1379 80.89674 89.95855 5.33197 -64.34278 1.28351 12.11582 50.68948 0.03358 -10.01486 -19.59378 -8.00905 -5.25243 -3.51475 53.90321 0.80441 9.35074 -24.3115 -8.24803 5.02776 3.40176
0.00278 -0.00032 0.00557 173.26579 -45.43901 0.28891 58.13838 0.38192 2.98733 -7.76644 -0.49152 -0.12807 94.10832 -82.84847 -90.00957 8.81371 85.50659 -11.05287 -10.55227 147.18059 80.93724 89.97725 5.33225 -64.08499 1.2431 12.11529 50.71913 0.01163 -10.03417 -19.62952 -8.01226 -5.25113 -3.51485 53.90827 0.76792 9.26628 -24.30496 -8.25268 5.03248 3.40825
0.00313 -0.00022 0.00592 173.22911 -45.42985 0.26282 58.0852 0.3884 2.9625 -7.73252 -0.47436 -0.12524 93.84711 -82.7784 -90.0294 8.71698 85.55021 -11.06912 -10.42974 146.37711 80.96376 89.98199 5.33263 -63.35755 1.29579 12.20501 50.74312 -0.014 -10.06527 -19.66693 -8.01586 -5.25055 -3.51546 53.90707 0.7243 9.16655 -24.29646 -8.25711 5.03739 3.41543
0.00351 -0.00014 0.00626 173.17166 -45.42963 0.23509 58.03503 0.38811 2.93279 -7.70446 -0.45457 -0.12329 92.78316 -82.73395 -89.96611 8.52402 85.54918 -11.0625 -10.22841 145.2117 81.01885 89.97538 5.33293 -63.59765 1.16693 12.10537 50.78201 -0.03241 -10.07032 -19.70199 -8.01858 -5.24816 -3.51482 53.92025 0.69348 9.09058 -24.29152 -8.26302 5.04292 3.42191
0.00392 -0.00011 0.00657 173.06662 -45.45436 0.20314 58.00014 0.37161 2.89676 -7.69106 -0.42678 -0.12224 89.70849 -82.82334 -90.06703 8.05088 85.48217 -11.0306 -9.80606 143.66344 81.16303 89.98126 5.33258 -66.72266 0.49422 11.45544 50.85886 -0.02995 -9.99588 -19.72614 -8.01992 -5.24176 -3.5114 53.97365 0.69962 9.09344 -24.29647 -8.27211 5.04895 3.4255
0.00435 -9e-05 0.00686 172.94121 -45.48731 0.16964 57.96759 0.34751 2.85403 -7.68457 -0.3967 -0.12234 85.76433 -82.92415 -90.02215 7.49183 85.36266 -10.98952 -9.30668 141.63511 81.3298 89.98085 5.33263 -70.77734 -0.35738 10.62165 50.95044 -0.02029 -9.89768 -19.74868 -8.02011 -5.23336 -3.50661 54.04098 0.71913 9.12057 -24.30533 -8.2824 5.05547 3.42832
0.00478 -7e-05 0.00715 172.82438 -45.51458 0.13686 57.93088 0.3246 2.80878 -7.67821 -0.36837 -0.12297 82.01487 -82.98515 -89.77454 6.98246 85.22857 -10.97231 -8.84892 139.38663 81.48331 89.98225 5.33221 -74.2543 -1.10365 9.89375 51.03503 -0.01422 -9.81705 -19.77421 -8.02017 -5.22544 -3.50212 54.10041 0.73283 9.13254 -24.31264 -8.29209 5.06188 3.43164
0.00516 -3e-05 0.0075 172.71045 -45.55007 0.10383 57.90727 0.31137 2.78727 -7.6587 -0.33671 -0.11923 79.09689 -83.20687 -90.61943 6.40709 85.24719 -10.86599 -8.3635 138.95047 81.6651 89.98353 5.33129 -78.38416 -1.94537 9.07152 51.12051 -0.00674 -9.70696 -19.78967 -8.02324 -5.21953 -3.4991 54.1663 0.74481 9.15958 -24.31844 -8.30247 5.06799 3.43446
0.00566 -3e-05 0.00771 172.58457 -45.57071 0.07113 57.85662 0.27614 2.71458 -7.66703 -0.31178 -0.12479 74.27054 -83.07787 -89.20793 5.97389 84.94696 -10.94225 -7.91634 134.67769 81.77391 89.98406 5.33369 -81.38004 -2.63715 8.4015 51.20847 -0.00063 -9.6533 -19.82651 -8.01944 -5.20867 -3.49253 54.22244 0.764 9.16298 -24.32893 -8.31127 5.07478 3.43806
0.00651 -0.0001 0.00751 172.44329 -45.54444 0.0384 57.73412 0.18169 2.50258 -7.7616 -0.30319 -0.15652 64.08896 -82.13878 -81.13306 5.73799 83.67836 -11.56265 -7.6062 119.46767 81.83777 89.99169 5.32836 -80.96616 -2.81809 8.20202 51.29115 0.00131 -9.75616 -19.91612 -7.9998 -5.18725 -3.47801 54.24415 0.79701 9.08167 -24.34666 -8.31854 5.08333 3.44442
